<mxfile host="Electron" agent="Mozilla/5.0 (Windows NT 10.0; Win64; x64) AppleWebKit/537.36 (KHTML, like Gecko) draw.io/27.0.9 Chrome/134.0.6998.205 Electron/35.4.0 Safari/537.36" version="27.0.9">
  <diagram name="Page-1" id="u67BmQiiDxw4VKv8PCRB">
    <mxGraphModel dx="1042" dy="626" grid="1" gridSize="10" guides="1" tooltips="1" connect="1" arrows="1" fold="1" page="1" pageScale="1" pageWidth="850" pageHeight="1100" math="0" shadow="0">
      <root>
        <mxCell id="0" />
        <mxCell id="1" parent="0" />
        <mxCell id="DYKBjsNCMGCyEV21DWyK-60" style="edgeStyle=orthogonalEdgeStyle;rounded=0;orthogonalLoop=1;jettySize=auto;html=1;exitX=1;exitY=0.5;exitDx=0;exitDy=0;entryX=0;entryY=0.75;entryDx=0;entryDy=0;" parent="1" source="DYKBjsNCMGCyEV21DWyK-13" target="DYKBjsNCMGCyEV21DWyK-53" edge="1">
          <mxGeometry relative="1" as="geometry" />
        </mxCell>
        <mxCell id="DYKBjsNCMGCyEV21DWyK-61" style="edgeStyle=orthogonalEdgeStyle;rounded=0;orthogonalLoop=1;jettySize=auto;html=1;exitX=1;exitY=0.75;exitDx=0;exitDy=0;entryX=0;entryY=0.75;entryDx=0;entryDy=0;" parent="1" source="DYKBjsNCMGCyEV21DWyK-13" target="DYKBjsNCMGCyEV21DWyK-41" edge="1">
          <mxGeometry relative="1" as="geometry" />
        </mxCell>
        <mxCell id="DYKBjsNCMGCyEV21DWyK-13" value="crm_cust_info" style="swimlane;whiteSpace=wrap;html=1;rounded=1;swimlaneLine=1;fillColor=#dae8fc;strokeColor=#6c8ebf;" parent="1" vertex="1">
          <mxGeometry x="320" y="290" width="200" height="60" as="geometry" />
        </mxCell>
        <mxCell id="DYKBjsNCMGCyEV21DWyK-1" value="Customer Information" style="text;html=1;align=center;verticalAlign=middle;whiteSpace=wrap;rounded=0;" parent="DYKBjsNCMGCyEV21DWyK-13" vertex="1">
          <mxGeometry x="40" y="-20" width="120" height="30" as="geometry" />
        </mxCell>
        <mxCell id="DYKBjsNCMGCyEV21DWyK-14" value="cst_id" style="text;html=1;align=center;verticalAlign=middle;resizable=0;points=[];autosize=1;strokeColor=none;fillColor=none;" parent="1" vertex="1">
          <mxGeometry x="395" y="318" width="50" height="30" as="geometry" />
        </mxCell>
        <mxCell id="DYKBjsNCMGCyEV21DWyK-15" value="Product Information" style="text;html=1;align=center;verticalAlign=middle;whiteSpace=wrap;rounded=0;" parent="1" vertex="1">
          <mxGeometry x="360" y="360" width="120" height="30" as="geometry" />
        </mxCell>
        <mxCell id="DYKBjsNCMGCyEV21DWyK-57" style="edgeStyle=orthogonalEdgeStyle;rounded=0;orthogonalLoop=1;jettySize=auto;html=1;exitX=1;exitY=0.75;exitDx=0;exitDy=0;entryX=0;entryY=0.75;entryDx=0;entryDy=0;" parent="1" source="DYKBjsNCMGCyEV21DWyK-16" target="DYKBjsNCMGCyEV21DWyK-45" edge="1">
          <mxGeometry relative="1" as="geometry" />
        </mxCell>
        <mxCell id="DYKBjsNCMGCyEV21DWyK-16" value="crm_prd_info" style="swimlane;whiteSpace=wrap;html=1;rounded=1;swimlaneLine=1;fillColor=#dae8fc;strokeColor=#6c8ebf;startSize=23;" parent="1" vertex="1">
          <mxGeometry x="320" y="380" width="200" height="60" as="geometry" />
        </mxCell>
        <mxCell id="DYKBjsNCMGCyEV21DWyK-17" value="prd_key" style="text;html=1;align=center;verticalAlign=middle;resizable=0;points=[];autosize=1;strokeColor=none;fillColor=none;" parent="1" vertex="1">
          <mxGeometry x="385" y="408" width="70" height="30" as="geometry" />
        </mxCell>
        <mxCell id="DYKBjsNCMGCyEV21DWyK-18" value="Sales Information" style="text;html=1;align=center;verticalAlign=middle;whiteSpace=wrap;rounded=0;" parent="1" vertex="1">
          <mxGeometry x="80" y="290" width="120" height="30" as="geometry" />
        </mxCell>
        <mxCell id="DYKBjsNCMGCyEV21DWyK-31" value="&lt;span style=&quot;font-weight: 700;&quot;&gt;crm_sales_details&lt;/span&gt;" style="swimlane;fontStyle=0;childLayout=stackLayout;horizontal=1;startSize=30;horizontalStack=0;resizeParent=1;resizeParentMax=0;resizeLast=0;collapsible=1;marginBottom=0;whiteSpace=wrap;html=1;rounded=1;fillColor=#dae8fc;strokeColor=#6c8ebf;" parent="1" vertex="1">
          <mxGeometry x="40" y="315" width="200" height="100" as="geometry" />
        </mxCell>
        <mxCell id="DYKBjsNCMGCyEV21DWyK-32" value="&lt;span style=&quot;text-align: center; text-wrap-mode: nowrap;&quot;&gt;cst_id&lt;/span&gt;" style="text;strokeColor=none;fillColor=none;align=left;verticalAlign=middle;spacingLeft=4;spacingRight=4;overflow=hidden;points=[[0,0.5],[1,0.5]];portConstraint=eastwest;rotatable=0;whiteSpace=wrap;html=1;" parent="DYKBjsNCMGCyEV21DWyK-31" vertex="1">
          <mxGeometry y="30" width="200" height="40" as="geometry" />
        </mxCell>
        <mxCell id="DYKBjsNCMGCyEV21DWyK-33" value="prd_key" style="text;strokeColor=none;fillColor=none;align=left;verticalAlign=middle;spacingLeft=4;spacingRight=4;overflow=hidden;points=[[0,0.5],[1,0.5]];portConstraint=eastwest;rotatable=0;whiteSpace=wrap;html=1;" parent="DYKBjsNCMGCyEV21DWyK-31" vertex="1">
          <mxGeometry y="70" width="200" height="30" as="geometry" />
        </mxCell>
        <mxCell id="DYKBjsNCMGCyEV21DWyK-38" style="edgeStyle=orthogonalEdgeStyle;rounded=0;orthogonalLoop=1;jettySize=auto;html=1;exitX=1;exitY=0.5;exitDx=0;exitDy=0;entryX=0;entryY=0.75;entryDx=0;entryDy=0;" parent="1" source="DYKBjsNCMGCyEV21DWyK-33" target="DYKBjsNCMGCyEV21DWyK-16" edge="1">
          <mxGeometry relative="1" as="geometry" />
        </mxCell>
        <mxCell id="DYKBjsNCMGCyEV21DWyK-40" style="edgeStyle=orthogonalEdgeStyle;rounded=0;orthogonalLoop=1;jettySize=auto;html=1;exitX=1;exitY=0.5;exitDx=0;exitDy=0;entryX=0;entryY=0.75;entryDx=0;entryDy=0;" parent="1" source="DYKBjsNCMGCyEV21DWyK-32" target="DYKBjsNCMGCyEV21DWyK-13" edge="1">
          <mxGeometry relative="1" as="geometry" />
        </mxCell>
        <mxCell id="DYKBjsNCMGCyEV21DWyK-41" value="erp_loc_a101" style="swimlane;whiteSpace=wrap;html=1;rounded=1;swimlaneLine=1;fillColor=#fff2cc;strokeColor=#d6b656;" parent="1" vertex="1">
          <mxGeometry x="590" y="303" width="200" height="60" as="geometry" />
        </mxCell>
        <mxCell id="DYKBjsNCMGCyEV21DWyK-43" value="cst_id" style="text;html=1;align=center;verticalAlign=middle;resizable=0;points=[];autosize=1;strokeColor=none;fillColor=none;" parent="1" vertex="1">
          <mxGeometry x="665" y="331" width="50" height="30" as="geometry" />
        </mxCell>
        <mxCell id="DYKBjsNCMGCyEV21DWyK-44" value="Product Categories" style="text;html=1;align=center;verticalAlign=middle;whiteSpace=wrap;rounded=0;" parent="1" vertex="1">
          <mxGeometry x="610" y="378" width="160" height="30" as="geometry" />
        </mxCell>
        <mxCell id="DYKBjsNCMGCyEV21DWyK-45" value="erp_px_cat_g1v2" style="swimlane;whiteSpace=wrap;html=1;rounded=1;swimlaneLine=1;fillColor=#fff2cc;strokeColor=#d6b656;startSize=23;" parent="1" vertex="1">
          <mxGeometry x="590" y="400" width="200" height="60" as="geometry" />
        </mxCell>
        <mxCell id="DYKBjsNCMGCyEV21DWyK-46" value="id" style="text;html=1;align=center;verticalAlign=middle;resizable=0;points=[];autosize=1;strokeColor=none;fillColor=none;" parent="1" vertex="1">
          <mxGeometry x="675" y="428" width="30" height="30" as="geometry" />
        </mxCell>
        <mxCell id="DYKBjsNCMGCyEV21DWyK-53" value="erp_cust_az12" style="swimlane;whiteSpace=wrap;html=1;rounded=1;swimlaneLine=1;fillColor=#fff2cc;strokeColor=#d6b656;" parent="1" vertex="1">
          <mxGeometry x="590" y="220" width="200" height="60" as="geometry" />
        </mxCell>
        <mxCell id="DYKBjsNCMGCyEV21DWyK-55" value="cst_id" style="text;html=1;align=center;verticalAlign=middle;resizable=0;points=[];autosize=1;strokeColor=none;fillColor=none;" parent="1" vertex="1">
          <mxGeometry x="665" y="248" width="50" height="30" as="geometry" />
        </mxCell>
        <mxCell id="DYKBjsNCMGCyEV21DWyK-54" value="Extra Customer Information" style="text;html=1;align=center;verticalAlign=middle;whiteSpace=wrap;rounded=0;" parent="1" vertex="1">
          <mxGeometry x="615" y="200" width="150" height="30" as="geometry" />
        </mxCell>
        <mxCell id="DYKBjsNCMGCyEV21DWyK-42" value="Location of Customer" style="text;html=1;align=center;verticalAlign=middle;whiteSpace=wrap;rounded=0;" parent="1" vertex="1">
          <mxGeometry x="630" y="280" width="120" height="30" as="geometry" />
        </mxCell>
        <mxCell id="DYKBjsNCMGCyEV21DWyK-62" value="" style="rounded=1;whiteSpace=wrap;html=1;fillColor=none;dashed=1;dashPattern=1 1;" parent="1" vertex="1">
          <mxGeometry x="40" y="200" width="500" height="320" as="geometry" />
        </mxCell>
        <mxCell id="DYKBjsNCMGCyEV21DWyK-63" value="" style="rounded=1;whiteSpace=wrap;html=1;fillColor=none;dashed=1;dashPattern=1 1;" parent="1" vertex="1">
          <mxGeometry x="540" y="200" width="285" height="320" as="geometry" />
        </mxCell>
        <mxCell id="DYKBjsNCMGCyEV21DWyK-64" value="&lt;b&gt;CRM&lt;/b&gt;" style="rounded=1;whiteSpace=wrap;html=1;fillColor=#dae8fc;strokeColor=#6c8ebf;" parent="1" vertex="1">
          <mxGeometry x="220" y="140" width="120" height="60" as="geometry" />
        </mxCell>
        <mxCell id="DYKBjsNCMGCyEV21DWyK-65" value="&lt;b&gt;ERP&lt;/b&gt;" style="rounded=1;whiteSpace=wrap;html=1;fillColor=#fff2cc;strokeColor=#d6b656;" parent="1" vertex="1">
          <mxGeometry x="630" y="140" width="120" height="60" as="geometry" />
        </mxCell>
        <mxCell id="Bv4GMuyuerGB5Gbxrjho-1" value="PRODUCT" style="text;html=1;strokeColor=#b85450;fillColor=#f8cecc;align=center;verticalAlign=middle;whiteSpace=wrap;overflow=hidden;" vertex="1" parent="1">
          <mxGeometry x="320" y="440" width="200" height="20" as="geometry" />
        </mxCell>
        <mxCell id="Bv4GMuyuerGB5Gbxrjho-2" value="PRODUCT" style="text;html=1;strokeColor=#b85450;fillColor=#f8cecc;align=center;verticalAlign=middle;whiteSpace=wrap;overflow=hidden;" vertex="1" parent="1">
          <mxGeometry x="590" y="460" width="200" height="20" as="geometry" />
        </mxCell>
        <mxCell id="Bv4GMuyuerGB5Gbxrjho-4" value="CUSTOMERS" style="text;html=1;strokeColor=#82b366;fillColor=#d5e8d4;align=center;verticalAlign=middle;whiteSpace=wrap;overflow=hidden;" vertex="1" parent="1">
          <mxGeometry x="320" y="350" width="200" height="20" as="geometry" />
        </mxCell>
        <mxCell id="Bv4GMuyuerGB5Gbxrjho-5" value="CUSTOMERS" style="text;html=1;strokeColor=#82b366;fillColor=#d5e8d4;align=center;verticalAlign=middle;whiteSpace=wrap;overflow=hidden;" vertex="1" parent="1">
          <mxGeometry x="590" y="363" width="200" height="20" as="geometry" />
        </mxCell>
        <mxCell id="Bv4GMuyuerGB5Gbxrjho-6" value="CUSTOMERS" style="text;html=1;strokeColor=#82b366;fillColor=#d5e8d4;align=center;verticalAlign=middle;whiteSpace=wrap;overflow=hidden;" vertex="1" parent="1">
          <mxGeometry x="590" y="280" width="200" height="20" as="geometry" />
        </mxCell>
        <mxCell id="Bv4GMuyuerGB5Gbxrjho-7" value="SALES" style="text;html=1;strokeColor=#9673a6;fillColor=#e1d5e7;align=center;verticalAlign=middle;whiteSpace=wrap;overflow=hidden;" vertex="1" parent="1">
          <mxGeometry x="40" y="415" width="200" height="20" as="geometry" />
        </mxCell>
      </root>
    </mxGraphModel>
  </diagram>
</mxfile>
